<?xml version="1.0" encoding="UTF-8" standalone="no" ?>
<!DOCTYPE svg PUBLIC "-//W3C//DTD SVG 1.1//EN" "http://www.w3.org/Graphics/SVG/1.1/DTD/svg11.dtd">
<svg xmlns="http://www.w3.org/2000/svg" xmlns:xlink="http://www.w3.org/1999/xlink" version="1.1" width="400" height="400" viewBox="0 0 400 400" xml:space="preserve">
<desc>Created with Fabric.js 3.6.2</desc>
<defs>
</defs>
<g transform="matrix(0.39 0 0 0.39 161.52 200)" id="Layer_1"  >
<path style="stroke: none; stroke-width: 1; stroke-dasharray: none; stroke-linecap: butt; stroke-dashoffset: 0; stroke-linejoin: miter; stroke-miterlimit: 4; fill: rgb(0,0,0); fill-rule: evenodd; opacity: 1;"  transform=" translate(-157.5, -256)" d="M 182.8 384 V 212.9 h -54.9 V 384 H 182.8 L 182.8 384 z M 157.4 187 c 18.3 0 29.7 -13.1 29.7 -29.5 c -0.3 -16.7 -11.4 -29.5 -29.4 -29.5 c -18 0 -29.7 12.8 -29.7 29.5 c 0 16.4 11.4 29.5 29 29.5 H 157.4 L 157.4 187 z" stroke-linecap="round" />
</g>
<g transform="matrix(0.39 0 0 0.39 217.19 215.82)" id="Layer_1"  >
<path style="stroke: none; stroke-width: 1; stroke-dasharray: none; stroke-linecap: butt; stroke-dashoffset: 0; stroke-linejoin: miter; stroke-miterlimit: 4; fill: rgb(0,0,0); fill-rule: evenodd; opacity: 1;"  transform=" translate(-300, -296.5)" d="M 320.6 209 c -29.1 0 -41.6 16.4 -49.6 27.8 V 213 h -55 v 171 h 55 v -97.4 c 0 -5 0.4 -10 1.9 -13.5 c 4 -10 13 -20.3 28.2 -20.3 c 19.9 0 27.9 15.3 27.9 37.7 V 384 h 55 v -99.9 C 384 232.8 356.8 209 320.6 209 z" stroke-linecap="round" />
</g>
<g transform="matrix(0.39 0 0 0.39 199.98 199.98)" id="Layer_1"  >
<path style="stroke: none; stroke-width: 1; stroke-dasharray: none; stroke-linecap: butt; stroke-dashoffset: 0; stroke-linejoin: miter; stroke-miterlimit: 4; fill: rgb(0,0,0); fill-rule: nonzero; opacity: 1;"  transform=" translate(-255.95, -255.95)" d="M 417.2 64 H 96.8 C 79.3 64 64 76.6 64 93.9 v 321.1 c 0 17.4 15.3 32.9 32.8 32.9 h 320.3 c 17.6 0 30.8 -15.6 30.8 -32.9 V 93.9 C 448 76.6 434.7 64 417.2 64 z M 414 416 c -1.1 0 -313.1 0 -314.9 0 s -3.1 -1.4 -3.1 -3.1 S 96 99.1 96 98 s 1 -2 2 -2 s 315 0 316 0 s 2 1 2 2 c 0 23.3 0 314.9 0 316 C 416 414.9 415.1 416 414 416 z" stroke-linecap="round" />
</g>
</svg>